<svg width="193" height="60" viewBox="0 0 193 60" fill="none" xmlns="http://www.w3.org/2000/svg"> <path d="M117.506 37.6627C117.506 37.427 117.422 37.2182 117.255 37.0344C117.087 36.8501 116.853 36.7574 116.551 36.7574H115.305V38.5687H116.551C116.853 38.5687 117.087 38.4754 117.255 38.2916C117.422 38.1073 117.506 37.8985 117.506 37.6627ZM117.632 43.7506L116.046 40.4179H115.305V43.7506H113.104V34.7949H116.65C117.146 34.7949 117.584 34.8758 117.965 35.0405C118.347 35.2045 118.666 35.4205 118.921 35.6873C119.177 35.956 119.372 36.2625 119.506 36.6064C119.639 36.9497 119.708 37.3065 119.708 37.6763C119.708 37.9783 119.663 38.2531 119.574 38.5054C119.487 38.7576 119.374 38.9799 119.237 39.1722C119.097 39.365 118.941 39.5323 118.77 39.6748C118.598 39.8179 118.423 39.9321 118.248 40.0153L120.185 43.7506H117.632Z" fill="white"></path> <path d="M123.507 34.7939H121.306V43.7494H123.507V34.7939Z" fill="white"></path> <path d="M131.745 41.6127C131.611 42.0735 131.375 42.4751 131.039 42.8207C130.652 43.2137 130.243 43.4806 129.811 43.6181C129.378 43.7577 128.919 43.8256 128.431 43.8256C127.902 43.8256 127.436 43.7414 127.033 43.5683C126.63 43.3975 126.263 43.1469 125.937 42.8207C125.701 42.5849 125.52 42.3326 125.394 42.0589C125.268 41.7869 125.179 41.5002 125.124 41.1982C125.069 40.8961 125.039 40.5847 125.036 40.2606C125.031 39.9377 125.029 39.6092 125.029 39.272C125.029 38.9372 125.031 38.6087 125.036 38.2852C125.039 37.9634 125.069 37.6502 125.124 37.3482C125.179 37.0462 125.268 36.7589 125.394 36.4874C125.52 36.2154 125.701 35.9615 125.937 35.7257C126.263 35.3989 126.625 35.1499 127.02 34.9775C127.415 34.805 127.886 34.7202 128.431 34.7202C129.01 34.7202 129.508 34.805 129.924 34.9775C130.341 35.1499 130.689 35.3739 130.971 35.6509C131.251 35.9265 131.471 36.2431 131.626 36.6C131.78 36.9568 131.883 37.3199 131.935 37.688H129.708C129.616 37.3447 129.473 37.0908 129.281 36.9268C129.086 36.7639 128.803 36.6814 128.425 36.6814C128.224 36.6814 128.05 36.7193 127.904 36.7956C127.756 36.8703 127.64 36.9631 127.557 37.071C127.508 37.1389 127.461 37.2153 127.418 37.2984C127.376 37.3832 127.343 37.502 127.319 37.6563C127.294 37.8125 127.272 38.0183 127.255 38.2739C127.238 38.5289 127.23 38.8626 127.23 39.272C127.23 39.6837 127.238 40.0169 127.255 40.2724C127.272 40.5297 127.294 40.7373 127.319 40.8961C127.343 41.0557 127.376 41.1767 127.418 41.2609C127.461 41.3442 127.508 41.4204 127.557 41.4867C127.64 41.5962 127.756 41.6856 127.904 41.7569C128.05 41.8281 128.224 41.865 128.425 41.865C128.661 41.865 128.858 41.8333 129.017 41.7706C129.176 41.7071 129.306 41.6212 129.406 41.5115C129.533 41.3853 129.621 41.2378 129.671 41.0653C129.72 40.8928 129.745 40.7236 129.745 40.5563V40.4303H128.425V38.5939H131.946V39.8398C131.946 40.5597 131.88 41.1519 131.745 41.6127Z" fill="white"></path> <path d="M136.714 38.1911L135.909 40.5816H137.469L136.714 38.1911ZM138.463 43.7512L138.048 42.4178H135.293L134.853 43.7512H132.551L135.808 34.7939H137.507L140.765 43.7512H138.463Z" fill="white"></path> <path d="M133.085 59.9249V55.6354L131.814 57.8499H130.406L129.136 55.6354V59.9249H126.935V50.9692H129.098L131.11 54.9184L133.123 50.9692H135.287V59.9249H133.085Z" fill="white"></path> <path d="M140.354 54.3649L139.549 56.7554H141.108L140.354 54.3649ZM142.102 59.9251L141.688 58.5917H138.932L138.493 59.9251H136.19L139.448 50.9678H141.147L144.405 59.9251H142.102Z" fill="white"></path> <path d="M149.714 53.8366C149.714 53.6008 149.629 53.392 149.462 53.2083C149.294 53.0239 149.06 52.9307 148.758 52.9307H147.512V54.7427H148.758C149.06 54.7427 149.294 54.6492 149.462 54.4654C149.629 54.2811 149.714 54.0723 149.714 53.8366ZM149.84 59.9244L148.254 56.5919H147.512V59.9244H145.312V50.9688H148.857C149.353 50.9688 149.792 51.0496 150.173 51.2143C150.554 51.3783 150.874 51.5943 151.129 51.8611C151.384 52.1299 151.58 52.4363 151.713 52.7802C151.847 53.1235 151.915 53.4803 151.915 53.8501C151.915 54.1521 151.87 54.4269 151.782 54.6792C151.694 54.9314 151.581 55.1537 151.444 55.346C151.304 55.5388 151.148 55.7061 150.978 55.8486C150.806 55.9919 150.631 56.1061 150.455 56.1892L152.392 59.9244H149.84Z" fill="white"></path> <path d="M156.77 54.3649L155.965 56.7554H157.524L156.77 54.3649ZM158.518 59.9251L158.103 58.5917H155.348L154.909 59.9251H152.606L155.864 50.9678H157.563L160.821 59.9251H158.518Z" fill="white"></path> <path d="M165.599 52.9312V59.925H163.398V52.9312H161.197V50.9688H167.801V52.9312H165.599Z" fill="white"></path> <path d="M173.624 59.9249V56.3784H171.285V59.9249H169.084V50.9692H171.285V54.4161H173.624V50.9692H175.825V59.9249H173.624Z" fill="white"></path> <path d="M181.963 55.4466C181.963 55.0356 181.955 54.7019 181.938 54.4461C181.922 54.1911 181.9 53.9853 181.875 53.831C181.85 53.6755 181.816 53.5556 181.774 53.473C181.732 53.3881 181.686 53.3118 181.636 53.2456C181.551 53.1366 181.435 53.0448 181.283 52.9685C181.132 52.894 180.956 52.8555 180.755 52.8555C180.555 52.8555 180.378 52.894 180.228 52.9685C180.077 53.0448 179.959 53.1366 179.875 53.2456C179.825 53.3118 179.778 53.3881 179.737 53.473C179.695 53.5556 179.661 53.6755 179.636 53.831C179.611 53.9853 179.589 54.1911 179.572 54.4461C179.556 54.7019 179.548 55.0356 179.548 55.4466C179.548 55.8584 179.556 56.1885 179.572 56.4402C179.589 56.6925 179.611 56.895 179.636 57.0504C179.661 57.2066 179.695 57.3263 179.737 57.4091C179.778 57.4938 179.825 57.5684 179.875 57.6363C179.959 57.7439 180.077 57.8388 180.228 57.9186C180.378 57.9983 180.555 58.0378 180.755 58.0378C180.956 58.0378 181.132 57.9983 181.283 57.9186C181.435 57.8388 181.551 57.7439 181.636 57.6363C181.686 57.5684 181.732 57.4938 181.774 57.4091C181.816 57.3263 181.85 57.2066 181.875 57.0504C181.9 56.895 181.922 56.6925 181.938 56.4402C181.955 56.1885 181.963 55.8584 181.963 55.4466ZM184.164 55.4466C184.164 55.782 184.162 56.1117 184.158 56.4339C184.154 56.7569 184.124 57.0691 184.07 57.3711C184.015 57.6732 183.925 57.9598 183.799 58.2336C183.672 58.5056 183.492 58.7595 183.258 58.9947C182.932 59.3216 182.572 59.5703 182.177 59.743C181.782 59.9136 181.309 60.0002 180.755 60.0002C180.201 60.0002 179.729 59.9136 179.334 59.743C178.939 59.5703 178.579 59.3216 178.252 58.9947C178.018 58.7595 177.837 58.5056 177.711 58.2336C177.585 57.9598 177.496 57.6732 177.441 57.3711C177.386 57.0691 177.356 56.7569 177.354 56.4339C177.348 56.1117 177.347 55.782 177.347 55.4466C177.347 55.1118 177.348 54.7815 177.354 54.4598C177.356 54.1363 177.386 53.8241 177.441 53.5226C177.496 53.2208 177.585 52.9341 177.711 52.6597C177.837 52.3878 178.018 52.1344 178.252 51.9003C178.579 51.5733 178.939 51.3229 179.334 51.1504C179.729 50.9796 180.201 50.8936 180.755 50.8936C181.309 50.8936 181.782 50.9796 182.177 51.1504C182.572 51.3229 182.932 51.5733 183.258 51.9003C183.492 52.1344 183.672 52.3878 183.799 52.6597C183.925 52.9341 184.015 53.2208 184.07 53.5226C184.124 53.8241 184.154 54.1363 184.158 54.4598C184.162 54.7815 184.164 55.1118 184.164 55.4466Z" fill="white"></path> <path d="M190.756 59.9249L187.888 55.4211V59.9249H185.687V50.9692H187.611L190.479 55.4725V50.9692H192.68V59.9249H190.756Z" fill="white"></path> <path d="M18.5727 59.5419L0.494873 41.4639H9.78678C13.431 41.4639 16.3967 38.4984 16.3967 34.8537C16.3967 31.2073 13.431 28.241 9.78678 28.241H0V20.5449H9.78678C17.6753 20.5449 24.095 26.9635 24.095 34.8537C24.095 40.0813 21.2743 44.6643 17.077 47.16L24.0159 54.0989L18.5727 59.5419Z" fill="white"></path> <path d="M36.1169 2.7218L30.6844 0L27.405 1.59066V3.88403L30.6398 2.20897L31.72 2.73771L28.5469 4.17736L28.4734 10.7006L23.0703 8.12412V11.4552L24.2014 10.7641L30.6844 14.0304V20.5011L31.72 21.0667L33.813 19.8739L32.8928 19.494L32.8713 8.69136L36.1169 10.2822V8.10432L32.8917 6.49164L36.1169 4.90024V2.7218Z" fill="white"></path> <path d="M39.8838 3.38751C39.8838 4.69724 38.8222 5.75879 37.5125 5.75879C36.2017 5.75879 35.1401 4.69724 35.1401 3.38751C35.1401 2.07779 36.2017 1.01624 37.5125 1.01624C38.8222 1.01624 39.8838 2.07779 39.8838 3.38751Z" fill="white"></path> <path d="M36.5361 59.9248H27.188L31.4945 20.5449H32.4328L36.5361 59.9248Z" fill="white"></path> <path d="M58.1042 59.6211C47.3299 59.6211 38.5654 50.8566 38.5654 40.0825C38.5654 29.3099 47.3299 20.5454 58.1042 20.5454H61.9525V28.2411H58.1042C51.5752 28.2411 46.2628 33.5535 46.2628 40.0825C46.2628 46.6125 51.5752 51.9245 58.1042 51.9245C63.287 51.9245 67.7028 48.5777 69.3038 43.9325H61.0364V36.234H77.6428V40.0825C77.6428 50.8566 68.8766 59.6211 58.1042 59.6211Z" fill="white"></path> <path d="M109.507 59.6091L88.0651 38.1663V59.9592H80.5322V19.981L114.833 54.2836L109.507 59.6091Z" fill="white"></path> <path d="M104.536 23.0936H102.324L102.487 21.8955C102.487 21.8955 104.026 21.8388 104.26 22.0798C104.274 22.0798 104.536 22.2358 104.536 22.5619V23.0936ZM105.422 24.4973V24.4903C105.422 24.4903 106.443 24.398 106.975 24.0648C107.514 23.7317 107.67 23.0157 107.67 22.3563C107.655 21.8318 107.542 20.5415 104.593 20.5415H99.2617L98.418 26.8225C98.418 26.8225 100.623 26.8297 101.729 26.8297C101.729 26.8297 102.069 24.1074 102.076 24.0648C102.083 24.0648 103.536 26.2129 103.536 26.2129C103.536 26.2129 103.962 26.8297 105.096 26.8297H107.769C107.769 26.8297 105.422 24.5046 105.422 24.4973Z" fill="white"></path> <path d="M113.425 21.6829C113.403 21.9311 112.709 26.7447 112.709 26.8298H110.539C109.83 26.8298 109.525 26.3194 109.525 25.9011L110.234 20.7896L112.836 20.8321C112.836 20.8321 113.517 20.8817 113.425 21.6829Z" fill="white"></path> <path d="M113.71 19.2798C113.71 19.2798 113.604 20.0526 113.583 20.1235H111.087C110.222 20.1235 110.364 19.4498 110.364 19.4498L110.471 18.8262H113.065C113.774 18.8262 113.71 19.2798 113.71 19.2798Z" fill="white"></path> <path d="M128.221 22.6256C127.994 24.3201 127.633 26.8296 127.633 26.8296H125.534C125.534 26.8296 124.556 26.7304 124.669 25.9293C124.761 25.2771 125.009 23.2778 125.073 22.7746C125.144 22.2216 124.506 22.264 124.506 22.264H123.705L123.11 26.8296H121.103C121.103 26.8296 119.976 26.9148 120.082 26.0001C120.196 25.0857 120.416 23.5189 120.472 22.9304C120.529 22.2712 119.919 22.2853 119.919 22.2853L119.125 22.264L118.537 26.8296H115.347L116.19 20.7896H126.172C126.718 20.7896 128.448 20.9809 128.221 22.6256Z" fill="white"></path> <path d="M134.169 21.6687C134.148 21.9097 133.453 26.7305 133.446 26.8227H131.284C130.567 26.8227 130.27 26.305 130.27 25.894C130.291 25.894 130.986 20.7754 130.986 20.7754L133.58 20.818C133.58 20.818 134.261 20.8676 134.169 21.6687Z" fill="white"></path> <path d="M134.453 19.2656C134.453 19.2656 134.339 20.0385 134.325 20.1164H131.83C130.965 20.1164 131.106 19.4429 131.106 19.4429L131.213 18.812H133.807C134.516 18.812 134.453 19.2656 134.453 19.2656Z" fill="white"></path> <path d="M142.201 20.2155C141.677 22.0799 139.883 25.6743 137.856 27.0708C137.99 26.7732 141.039 20.0596 138.402 17.7058C138.402 17.7058 140.06 17.1316 141.124 17.3158C142.194 17.5002 142.74 18.3439 142.201 20.2155Z" fill="white"></path> <path d="M145.831 19.8397C145.675 20.4281 144.448 24.0933 139.627 26.1848C139.627 26.1848 144.675 19.9318 142.641 18.4787C142.641 18.4787 144.115 18.0601 145.008 18.287C145.902 18.514 145.994 19.2511 145.831 19.8397Z" fill="white"></path> </svg>
